<mxfile>
    <diagram id="w64f38Hr7dENlAOEtRdT" name="Page-1">
        <mxGraphModel dx="925" dy="555" grid="0" gridSize="10" guides="1" tooltips="1" connect="1" arrows="1" fold="1" page="1" pageScale="1" pageWidth="1654" pageHeight="1169" background="#EEEEEE" math="0" shadow="0">
            <root>
                <mxCell id="0"/>
                <mxCell id="1" parent="0"/>
                <mxCell id="LPI8I9ldNvDYp5HTZg7Z-16" value="Person" style="swimlane;fontStyle=0;childLayout=stackLayout;horizontal=1;startSize=42;fillColor=#F5AB50;horizontalStack=0;resizeParent=1;resizeParentMax=0;resizeLast=0;collapsible=1;marginBottom=0;strokeColor=#909090;fontColor=#1A1A1A;rounded=1;fontFamily=Times New Roman;fontSize=36;" parent="1" vertex="1">
                    <mxGeometry x="663.86" y="83" width="352" height="249" as="geometry"/>
                </mxCell>
                <mxCell id="LPI8I9ldNvDYp5HTZg7Z-17" value="+ FIO:String" style="text;strokeColor=none;fillColor=none;align=left;verticalAlign=top;spacingLeft=4;spacingRight=4;overflow=hidden;rotatable=0;points=[[0,0.5],[1,0.5]];portConstraint=eastwest;fontColor=#1A1A1A;rounded=1;fontFamily=Times New Roman;fontSize=36;" parent="LPI8I9ldNvDYp5HTZg7Z-16" vertex="1">
                    <mxGeometry y="42" width="352" height="50" as="geometry"/>
                </mxCell>
                <mxCell id="LPI8I9ldNvDYp5HTZg7Z-18" value="+ birth_date: Datetime" style="text;strokeColor=none;fillColor=none;align=left;verticalAlign=top;spacingLeft=4;spacingRight=4;overflow=hidden;rotatable=0;points=[[0,0.5],[1,0.5]];portConstraint=eastwest;fontColor=#1A1A1A;rounded=1;fontFamily=Times New Roman;fontSize=36;" parent="LPI8I9ldNvDYp5HTZg7Z-16" vertex="1">
                    <mxGeometry y="92" width="352" height="49" as="geometry"/>
                </mxCell>
                <mxCell id="LPI8I9ldNvDYp5HTZg7Z-19" value="+ email: String" style="text;strokeColor=none;fillColor=none;align=left;verticalAlign=top;spacingLeft=4;spacingRight=4;overflow=hidden;rotatable=0;points=[[0,0.5],[1,0.5]];portConstraint=eastwest;fontColor=#1A1A1A;rounded=1;fontFamily=Times New Roman;fontSize=36;" parent="LPI8I9ldNvDYp5HTZg7Z-16" vertex="1">
                    <mxGeometry y="141" width="352" height="48" as="geometry"/>
                </mxCell>
                <mxCell id="LPI8I9ldNvDYp5HTZg7Z-20" value="+ phone: String" style="text;strokeColor=none;fillColor=none;align=left;verticalAlign=top;spacingLeft=4;spacingRight=4;overflow=hidden;rotatable=0;points=[[0,0.5],[1,0.5]];portConstraint=eastwest;fontColor=#1A1A1A;rounded=1;fontFamily=Times New Roman;fontSize=36;" parent="LPI8I9ldNvDYp5HTZg7Z-16" vertex="1">
                    <mxGeometry y="189" width="352" height="60" as="geometry"/>
                </mxCell>
                <mxCell id="LPI8I9ldNvDYp5HTZg7Z-21" value="Doctor" style="swimlane;fontStyle=0;childLayout=stackLayout;horizontal=1;startSize=39;fillColor=#F5AB50;horizontalStack=0;resizeParent=1;resizeParentMax=0;resizeLast=0;collapsible=1;marginBottom=0;strokeColor=#909090;fontColor=#1A1A1A;rounded=1;fontFamily=Times New Roman;fontSize=36;" parent="1" vertex="1">
                    <mxGeometry x="281.86" y="389" width="324" height="244" as="geometry"/>
                </mxCell>
                <mxCell id="LPI8I9ldNvDYp5HTZg7Z-22" value="+ id:long" style="text;strokeColor=none;fillColor=none;align=left;verticalAlign=top;spacingLeft=4;spacingRight=4;overflow=hidden;rotatable=0;points=[[0,0.5],[1,0.5]];portConstraint=eastwest;fontColor=#1A1A1A;rounded=1;fontFamily=Times New Roman;fontSize=36;" parent="LPI8I9ldNvDYp5HTZg7Z-21" vertex="1">
                    <mxGeometry y="39" width="324" height="49" as="geometry"/>
                </mxCell>
                <mxCell id="LPI8I9ldNvDYp5HTZg7Z-23" value="+ experience: String" style="text;strokeColor=none;fillColor=none;align=left;verticalAlign=top;spacingLeft=4;spacingRight=4;overflow=hidden;rotatable=0;points=[[0,0.5],[1,0.5]];portConstraint=eastwest;fontColor=#1A1A1A;rounded=1;fontFamily=Times New Roman;fontSize=36;" parent="LPI8I9ldNvDYp5HTZg7Z-21" vertex="1">
                    <mxGeometry y="88" width="324" height="51" as="geometry"/>
                </mxCell>
                <mxCell id="LPI8I9ldNvDYp5HTZg7Z-24" value="+ education: String" style="text;strokeColor=none;fillColor=none;align=left;verticalAlign=top;spacingLeft=4;spacingRight=4;overflow=hidden;rotatable=0;points=[[0,0.5],[1,0.5]];portConstraint=eastwest;fontColor=#1A1A1A;rounded=1;fontFamily=Times New Roman;fontSize=36;" parent="LPI8I9ldNvDYp5HTZg7Z-21" vertex="1">
                    <mxGeometry y="139" width="324" height="47" as="geometry"/>
                </mxCell>
                <mxCell id="LPI8I9ldNvDYp5HTZg7Z-25" value="+ spec_id: String" style="text;strokeColor=none;fillColor=none;align=left;verticalAlign=top;spacingLeft=4;spacingRight=4;overflow=hidden;rotatable=0;points=[[0,0.5],[1,0.5]];portConstraint=eastwest;fontColor=#1A1A1A;rounded=1;fontFamily=Times New Roman;fontSize=36;" parent="LPI8I9ldNvDYp5HTZg7Z-21" vertex="1">
                    <mxGeometry y="186" width="324" height="58" as="geometry"/>
                </mxCell>
                <mxCell id="LPI8I9ldNvDYp5HTZg7Z-31" value="Patient" style="swimlane;fontStyle=0;childLayout=stackLayout;horizontal=1;startSize=38;fillColor=#F5AB50;horizontalStack=0;resizeParent=1;resizeParentMax=0;resizeLast=0;collapsible=1;marginBottom=0;strokeColor=#909090;fontColor=#1A1A1A;rounded=1;fontFamily=Times New Roman;fontSize=36;" parent="1" vertex="1">
                    <mxGeometry x="1081.86" y="451" width="386" height="182" as="geometry"/>
                </mxCell>
                <mxCell id="LPI8I9ldNvDYp5HTZg7Z-32" value="+ id:long" style="text;strokeColor=none;fillColor=none;align=left;verticalAlign=top;spacingLeft=4;spacingRight=4;overflow=hidden;rotatable=0;points=[[0,0.5],[1,0.5]];portConstraint=eastwest;fontColor=#1A1A1A;rounded=1;fontFamily=Times New Roman;fontSize=36;" parent="LPI8I9ldNvDYp5HTZg7Z-31" vertex="1">
                    <mxGeometry y="38" width="386" height="48" as="geometry"/>
                </mxCell>
                <mxCell id="LPI8I9ldNvDYp5HTZg7Z-33" value="+ medical_history: String" style="text;strokeColor=none;fillColor=none;align=left;verticalAlign=top;spacingLeft=4;spacingRight=4;overflow=hidden;rotatable=0;points=[[0,0.5],[1,0.5]];portConstraint=eastwest;fontColor=#1A1A1A;rounded=1;fontFamily=Times New Roman;fontSize=36;" parent="LPI8I9ldNvDYp5HTZg7Z-31" vertex="1">
                    <mxGeometry y="86" width="386" height="47" as="geometry"/>
                </mxCell>
                <mxCell id="LPI8I9ldNvDYp5HTZg7Z-34" value="+ add_info: String" style="text;strokeColor=none;fillColor=none;align=left;verticalAlign=top;spacingLeft=4;spacingRight=4;overflow=hidden;rotatable=0;points=[[0,0.5],[1,0.5]];portConstraint=eastwest;fontColor=#1A1A1A;rounded=1;fontFamily=Times New Roman;fontSize=36;" parent="LPI8I9ldNvDYp5HTZg7Z-31" vertex="1">
                    <mxGeometry y="133" width="386" height="49" as="geometry"/>
                </mxCell>
                <mxCell id="LPI8I9ldNvDYp5HTZg7Z-44" value="Extends" style="endArrow=block;endSize=16;endFill=0;html=1;strokeColor=#182E3E;fontColor=#1A1A1A;labelBackgroundColor=#EEEEEE;fontFamily=Times New Roman;fontSize=36;" parent="1" source="LPI8I9ldNvDYp5HTZg7Z-31" target="LPI8I9ldNvDYp5HTZg7Z-16" edge="1">
                    <mxGeometry width="160" relative="1" as="geometry">
                        <mxPoint x="612.86" y="310" as="sourcePoint"/>
                        <mxPoint x="772.86" y="310" as="targetPoint"/>
                    </mxGeometry>
                </mxCell>
                <mxCell id="LPI8I9ldNvDYp5HTZg7Z-45" value="Extends" style="endArrow=block;endSize=16;endFill=0;html=1;strokeColor=#182E3E;fontColor=#1A1A1A;labelBackgroundColor=#EEEEEE;fontFamily=Times New Roman;fontSize=36;" parent="1" source="LPI8I9ldNvDYp5HTZg7Z-21" target="LPI8I9ldNvDYp5HTZg7Z-16" edge="1">
                    <mxGeometry width="160" relative="1" as="geometry">
                        <mxPoint x="663.86" y="451" as="sourcePoint"/>
                        <mxPoint x="823.86" y="451" as="targetPoint"/>
                    </mxGeometry>
                </mxCell>
                <mxCell id="LPI8I9ldNvDYp5HTZg7Z-51" value="Schedule" style="swimlane;fontStyle=0;childLayout=stackLayout;horizontal=1;startSize=44;fillColor=#F5AB50;horizontalStack=0;resizeParent=1;resizeParentMax=0;resizeLast=0;collapsible=1;marginBottom=0;strokeColor=#909090;fontColor=#1A1A1A;rounded=1;fontFamily=Times New Roman;fontSize=36;" parent="1" vertex="1">
                    <mxGeometry x="281.86" y="751" width="312" height="270" as="geometry"/>
                </mxCell>
                <mxCell id="LPI8I9ldNvDYp5HTZg7Z-67" value="+ id:long" style="text;strokeColor=none;fillColor=none;align=left;verticalAlign=top;spacingLeft=4;spacingRight=4;overflow=hidden;rotatable=0;points=[[0,0.5],[1,0.5]];portConstraint=eastwest;fontColor=#1A1A1A;rounded=1;fontFamily=Times New Roman;fontSize=36;" parent="LPI8I9ldNvDYp5HTZg7Z-51" vertex="1">
                    <mxGeometry y="44" width="312" height="57" as="geometry"/>
                </mxCell>
                <mxCell id="LPI8I9ldNvDYp5HTZg7Z-52" value="+ doctor_id:long" style="text;strokeColor=none;fillColor=none;align=left;verticalAlign=top;spacingLeft=4;spacingRight=4;overflow=hidden;rotatable=0;points=[[0,0.5],[1,0.5]];portConstraint=eastwest;fontColor=#1A1A1A;rounded=1;fontFamily=Times New Roman;fontSize=36;" parent="LPI8I9ldNvDYp5HTZg7Z-51" vertex="1">
                    <mxGeometry y="101" width="312" height="57" as="geometry"/>
                </mxCell>
                <mxCell id="LPI8I9ldNvDYp5HTZg7Z-53" value="+ date: Datetime" style="text;strokeColor=none;fillColor=none;align=left;verticalAlign=top;spacingLeft=4;spacingRight=4;overflow=hidden;rotatable=0;points=[[0,0.5],[1,0.5]];portConstraint=eastwest;fontColor=#1A1A1A;rounded=1;fontFamily=Times New Roman;fontSize=36;" parent="LPI8I9ldNvDYp5HTZg7Z-51" vertex="1">
                    <mxGeometry y="158" width="312" height="57" as="geometry"/>
                </mxCell>
                <mxCell id="LPI8I9ldNvDYp5HTZg7Z-54" value="+ duration: int" style="text;strokeColor=none;fillColor=none;align=left;verticalAlign=top;spacingLeft=4;spacingRight=4;overflow=hidden;rotatable=0;points=[[0,0.5],[1,0.5]];portConstraint=eastwest;fontColor=#1A1A1A;rounded=1;fontFamily=Times New Roman;fontSize=36;" parent="LPI8I9ldNvDYp5HTZg7Z-51" vertex="1">
                    <mxGeometry y="215" width="312" height="55" as="geometry"/>
                </mxCell>
                <mxCell id="LPI8I9ldNvDYp5HTZg7Z-55" value="Appointment" style="swimlane;fontStyle=0;childLayout=stackLayout;horizontal=1;startSize=39;fillColor=#F5AB50;horizontalStack=0;resizeParent=1;resizeParentMax=0;resizeLast=0;collapsible=1;marginBottom=0;strokeColor=#909090;fontColor=#1A1A1A;rounded=1;fontFamily=Times New Roman;fontSize=36;" parent="1" vertex="1">
                    <mxGeometry x="685.36" y="676" width="309" height="345" as="geometry">
                        <mxRectangle x="463" y="394" width="94" height="26" as="alternateBounds"/>
                    </mxGeometry>
                </mxCell>
                <mxCell id="LPI8I9ldNvDYp5HTZg7Z-56" value="+ id:long" style="text;strokeColor=none;fillColor=none;align=left;verticalAlign=top;spacingLeft=4;spacingRight=4;overflow=hidden;rotatable=0;points=[[0,0.5],[1,0.5]];portConstraint=eastwest;fontColor=#1A1A1A;rounded=1;fontFamily=Times New Roman;fontSize=36;" parent="LPI8I9ldNvDYp5HTZg7Z-55" vertex="1">
                    <mxGeometry y="39" width="309" height="54" as="geometry"/>
                </mxCell>
                <mxCell id="LPI8I9ldNvDYp5HTZg7Z-59" value="+ doctor_id:long" style="text;strokeColor=none;fillColor=none;align=left;verticalAlign=top;spacingLeft=4;spacingRight=4;overflow=hidden;rotatable=0;points=[[0,0.5],[1,0.5]];portConstraint=eastwest;fontColor=#1A1A1A;rounded=1;fontFamily=Times New Roman;fontSize=36;" parent="LPI8I9ldNvDYp5HTZg7Z-55" vertex="1">
                    <mxGeometry y="93" width="309" height="50" as="geometry"/>
                </mxCell>
                <mxCell id="LPI8I9ldNvDYp5HTZg7Z-60" value="+ patient_id:long" style="text;strokeColor=none;fillColor=none;align=left;verticalAlign=top;spacingLeft=4;spacingRight=4;overflow=hidden;rotatable=0;points=[[0,0.5],[1,0.5]];portConstraint=eastwest;fontColor=#1A1A1A;rounded=1;fontFamily=Times New Roman;fontSize=36;" parent="LPI8I9ldNvDYp5HTZg7Z-55" vertex="1">
                    <mxGeometry y="143" width="309" height="50" as="geometry"/>
                </mxCell>
                <mxCell id="LPI8I9ldNvDYp5HTZg7Z-57" value="+ date: Datetime" style="text;strokeColor=none;fillColor=none;align=left;verticalAlign=top;spacingLeft=4;spacingRight=4;overflow=hidden;rotatable=0;points=[[0,0.5],[1,0.5]];portConstraint=eastwest;fontColor=#1A1A1A;rounded=1;fontFamily=Times New Roman;fontSize=36;" parent="LPI8I9ldNvDYp5HTZg7Z-55" vertex="1">
                    <mxGeometry y="193" width="309" height="52" as="geometry"/>
                </mxCell>
                <mxCell id="LPI8I9ldNvDYp5HTZg7Z-58" value="+ result: String&#10;" style="text;strokeColor=none;fillColor=none;align=left;verticalAlign=top;spacingLeft=4;spacingRight=4;overflow=hidden;rotatable=0;points=[[0,0.5],[1,0.5]];portConstraint=eastwest;fontColor=#1A1A1A;rounded=1;fontFamily=Times New Roman;fontSize=36;" parent="LPI8I9ldNvDYp5HTZg7Z-55" vertex="1">
                    <mxGeometry y="245" width="309" height="47" as="geometry"/>
                </mxCell>
                <mxCell id="8" value="+ booked: boolean&#10;" style="text;strokeColor=none;fillColor=none;align=left;verticalAlign=top;spacingLeft=4;spacingRight=4;overflow=hidden;rotatable=0;points=[[0,0.5],[1,0.5]];portConstraint=eastwest;fontColor=#1A1A1A;rounded=1;fontFamily=Times New Roman;fontSize=36;" parent="LPI8I9ldNvDYp5HTZg7Z-55" vertex="1">
                    <mxGeometry y="292" width="309" height="53" as="geometry"/>
                </mxCell>
                <mxCell id="18" style="edgeStyle=orthogonalEdgeStyle;rounded=0;orthogonalLoop=1;jettySize=auto;html=1;strokeWidth=2;strokeColor=#000000;entryX=1;entryY=0.5;entryDx=0;entryDy=0;endArrow=none;endFill=0;targetPerimeterSpacing=0;" edge="1" parent="1" source="LPI8I9ldNvDYp5HTZg7Z-32" target="LPI8I9ldNvDYp5HTZg7Z-60">
                    <mxGeometry relative="1" as="geometry">
                        <mxPoint x="885.8781783040366" y="513" as="targetPoint"/>
                    </mxGeometry>
                </mxCell>
                <mxCell id="19" style="edgeStyle=orthogonalEdgeStyle;rounded=0;orthogonalLoop=1;jettySize=auto;html=1;entryX=0;entryY=0.5;entryDx=0;entryDy=0;endArrow=none;endFill=0;targetPerimeterSpacing=0;strokeColor=#000000;strokeWidth=2;" edge="1" parent="1" source="LPI8I9ldNvDYp5HTZg7Z-22" target="LPI8I9ldNvDYp5HTZg7Z-59">
                    <mxGeometry relative="1" as="geometry"/>
                </mxCell>
                <mxCell id="20" style="edgeStyle=orthogonalEdgeStyle;rounded=0;orthogonalLoop=1;jettySize=auto;html=1;entryX=0;entryY=0.5;entryDx=0;entryDy=0;endArrow=none;endFill=0;targetPerimeterSpacing=0;strokeColor=#000000;strokeWidth=2;" edge="1" parent="1" source="LPI8I9ldNvDYp5HTZg7Z-22" target="LPI8I9ldNvDYp5HTZg7Z-52">
                    <mxGeometry relative="1" as="geometry">
                        <Array as="points">
                            <mxPoint x="230.86" y="453"/>
                            <mxPoint x="230.86" y="881"/>
                        </Array>
                    </mxGeometry>
                </mxCell>
                <mxCell id="21" value="1" style="text;html=1;align=center;verticalAlign=middle;resizable=0;points=[];autosize=1;fontColor=#000000;fontFamily=Times New Roman;fontSize=36;" vertex="1" parent="1">
                    <mxGeometry x="619" y="405" width="28" height="46" as="geometry"/>
                </mxCell>
                <mxCell id="22" value="1" style="text;html=1;align=center;verticalAlign=middle;resizable=0;points=[];autosize=1;fontColor=#000000;fontFamily=Times New Roman;fontSize=36;" vertex="1" parent="1">
                    <mxGeometry x="1044" y="467" width="28" height="46" as="geometry"/>
                </mxCell>
                <mxCell id="23" value="1" style="text;html=1;align=center;verticalAlign=middle;resizable=0;points=[];autosize=1;fontColor=#000000;fontFamily=Times New Roman;fontSize=36;" vertex="1" parent="1">
                    <mxGeometry x="240" y="405" width="28" height="46" as="geometry"/>
                </mxCell>
                <mxCell id="24" value="*" style="text;html=1;align=center;verticalAlign=middle;resizable=0;points=[];autosize=1;fontSize=36;fontFamily=Times New Roman;fontColor=#000000;" vertex="1" parent="1">
                    <mxGeometry x="653" y="748" width="28" height="46" as="geometry"/>
                </mxCell>
                <mxCell id="25" value="*" style="text;html=1;align=center;verticalAlign=middle;resizable=0;points=[];autosize=1;fontSize=36;fontFamily=Times New Roman;fontColor=#000000;" vertex="1" parent="1">
                    <mxGeometry x="240" y="836" width="28" height="46" as="geometry"/>
                </mxCell>
                <mxCell id="26" value="*" style="text;html=1;align=center;verticalAlign=middle;resizable=0;points=[];autosize=1;fontSize=36;fontFamily=Times New Roman;fontColor=#000000;" vertex="1" parent="1">
                    <mxGeometry x="1001" y="797" width="28" height="46" as="geometry"/>
                </mxCell>
            </root>
        </mxGraphModel>
    </diagram>
</mxfile>